# xmcd
#
# Track frame offsets:
#	150
#	14933
#	29272
#	41507
#	56238
#	75104
#	92932
#	108161
#	129463
#	147747
#	164434
#	179940
#	201410
#	223558
#	237473
#	247507
#
# Disc length: 3458 seconds
#
# Revision: 0
# Processed by: cddbd v1.5.2PL0 Copyright (c) Steve Scherf et al.
# Submitted via: EasyCDDAExtractor 16.0.9.1
#
DISCID=ea0d8010
DTITLE=John Denver - The Unplugged Collection
DYEAR=1996
DGENRE=Country
TTITLE0=Take Me Home Country Roads
TTITLE1=Annie's Song
TTITLE2=Perhaps Love
TTITLE3=Dreamland Express
TTITLE4=Rocky Mountain High
TTITLE5=Seasons of The Heart
TTITLE6=Whispering Jesse
TTITLE7=For You
TTITLE8=Windsong
TTITLE9=Leaving On A Jetplane
TTITLE10=I'm Sorry
TTITLE11=Back Home Again
TTITLE12=Sunshine On My Shoulders
TTITLE13=Thank God I'm A Country Boy
TTITLE14=Christmas For Cowboys
TTITLE15=Love Again
EXTD=
EXTT0=
EXTT1=
EXTT2=
EXTT3=
EXTT4=
EXTT5=
EXTT6=
EXTT7=
EXTT8=
EXTT9=
EXTT10=
EXTT11=
EXTT12=
EXTT13=
EXTT14=
EXTT15=
PLAYORDER=
